:SAMPLES-PER-SECOND 30
:FULLY-SPECIFIED
:DEGREES
260
root  -46.9586 26.7815 -5.42536 96.2645 86.529 -153.677
RightUpLeg  75.3771 40.9336 -36.7429
RightLeg  66.8975 10.1786 24.1014
RightFoot  -32.6439 -0.010845 1.12462
RightToes  3.49245e-010 0 -3.6325e-017
Spine  -14.0999 -37.2903 58.33
Spine1  118.308 27.3157 -56.9504
HEad  -24.4051 -3.25812 -0.0136831
LeftShoulder1  -0.615581 -1.8086 22.877
LeftArm  -89.4334 -44.272 10.1666
LeftForeArm  -25.7873 -35.859 -9.44212
LeftHand  -0.757102 13.5626 -9.28431
RightShoulder  -0.00517313 -3.40608 -25.9254
RightArm  -78.0484 24.4815 -7.09327
RightForeArm  -44.5715 38.8803 11.1109
RightHand  -0.063144 4.37912 -1.03562
LeftUpLeg  105.173 -14.458 10.8987
LeftLeg  69.9274 -2.81071 -7.55564
LeftFoot  -45.6554 -1.81886 -6.78771
LeftToes  -5.36635e-011 -6.70219e-011 5.24975e-011
261
root  -46.5327 26.7805 -5.52365 88.8939 86.8667 -163.383
RightUpLeg  73.5887 40.5894 -37.1725
RightLeg  67.1185 9.91704 23.7928
RightFoot  -33.0007 0.130608 1.85737
RightToes  3.49245e-010 0 -3.6325e-017
Spine  -10.2976 -39.65 59.7307
Spine1  111.512 24.6071 -59.8683
HEad  -25.7359 -3.32715 -0.891438
LeftShoulder1  -0.66604 -2.2547 22.8615
LeftArm  -88.3798 -44.6731 10.6279
LeftForeArm  -25.5405 -34.4486 -9.00565
LeftHand  -0.815404 13.7489 -9.83952
RightShoulder  -0.0246624 -3.26448 -25.3081
RightArm  -78.3704 25.5149 -8.53535
RightForeArm  -44.0002 37.3845 10.5907
RightHand  -0.0220799 4.77464 -0.547517
LeftUpLeg  104.423 -11.629 9.74095
LeftLeg  69.7239 -2.35657 -6.09423
LeftFoot  -45.5971 -2.534 -9.11414
LeftToes  -5.36635e-011 -6.70219e-011 5.24975e-011
262
root  -45.8271 27.1839 -5.1177 90.4627 85.8949 -166.717
RightUpLeg  71.2149 37.9833 -40.3558
RightLeg  66.1515 9.97159 22.8708
RightFoot  -33.5237 0.226211 2.31979
RightToes  3.49245e-010 0 -3.6325e-017
Spine  -7.7401 -38.3507 56.1648
Spine1  107.896 21.8501 -58.0302
HEad  -26.1484 -2.79896 -1.59943
LeftShoulder1  -0.702303 -2.71728 22.5422
LeftArm  -86.9502 -44.6808 10.7599
LeftForeArm  -25.7576 -33.5599 -8.75614
LeftHand  -0.748155 13.5709 -9.15573
RightShoulder  0.0345158 -3.6918 -25.5751
RightArm  -78.4912 27.0783 -8.97691
RightForeArm  -43.1895 35.9866 10.1185
RightHand  -0.0417013 4.65594 -0.766088
LeftUpLeg  101.081 -11.5205 8.82254
LeftLeg  68.571 -2.94709 -7.35658
LeftFoot  -43.8983 -2.74963 -10.306
LeftToes  -5.36635e-011 -6.70219e-011 5.24975e-011
263
root  -45.3328 27.664 -4.69458 80.8549 86.5144 -178.55
RightUpLeg  70.8757 36.4999 -40.3056
RightLeg  65.2819 10.0031 22.0467
RightFoot  -33.1568 0.341536 2.94575
RightToes  3.49245e-010 0 -3.6325e-017
Spine  -4.73983 -38.7019 54.6426
Spine1  104.555 20.0115 -57.8516
HEad  -26.3982 -2.61005 -2.36151
LeftShoulder1  -0.717129 -2.98872 22.2764
LeftArm  -85.9222 -44.5789 10.4895
LeftForeArm  -26.1095 -32.9841 -8.60717
LeftHand  -0.695545 13.2433 -8.81818
RightShoulder  -0.0399254 -3.16389 -25.7357
RightArm  -78.2222 27.6825 -10.0104
RightForeArm  -43.3 34.554 9.68259
RightHand  -0.0907867 5.55199 -1.28921
LeftUpLeg  99.3528 -12.168 9.04802
LeftLeg  67.9268 -4.00312 -9.92522
LeftFoot  -39.517 -2.84719 -12.3359
LeftToes  -5.36635e-011 -6.70219e-011 5.24975e-011
264
root  -44.6485 28.3079 -4.35688 36.6218 87.4007 136.184
RightUpLeg  70.6331 36.9151 -39.5471
RightLeg  63.8012 10.8561 22.3147
RightFoot  -31.9839 0.435087 3.58784
RightToes  3.49245e-010 0 -3.6325e-017
Spine  0.66881 -38.8106 52.4197
Spine1  101.951 18.5123 -57.0925
HEad  -25.7412 -1.32893 -2.71832
LeftShoulder1  -0.734307 -3.40738 21.7911
LeftArm  -84.8777 -43.8321 10.5181
LeftForeArm  -26.2385 -32.1051 -8.36671
LeftHand  -0.652205 12.7333 -8.82039
RightShoulder  -0.0981841 -2.77862 -26.3924
RightArm  -78.6887 28.5638 -10.8271
RightForeArm  -42.6683 33.0335 9.21329
RightHand  -0.0889557 6.40848 -1.20501
LeftUpLeg  98.779 -12.3494 10.4643
LeftLeg  67.1655 -5.51068 -13.3024
LeftFoot  -31.0007 -2.47107 -15.3515
LeftToes  -5.36635e-011 -6.70219e-011 5.24975e-011
265
root  -43.7855 29.2165 -3.59788 -21.2054 84.7419 77.9023
RightUpLeg  71.8878 37.9239 -37.1614
RightLeg  61.2062 11.8048 21.6557
RightFoot  -31.1812 0.575541 4.49907
RightToes  3.49245e-010 0 -3.6325e-017
Spine  4.89659 -36.3189 48.8228
Spine1  103.348 18.6964 -53.5855
HEad  -24.8605 -0.924034 -3.10796
LeftShoulder1  -0.725032 -3.28923 21.8477
LeftArm  -85.6835 -43.7603 10.5789
LeftForeArm  -26.0478 -31.2201 -8.11587
LeftHand  -0.632278 12.2625 -9.12939
RightShoulder  -0.0874802 -2.89028 -27.4609
RightArm  -79.8463 28.6941 -10.8702
RightForeArm  -41.4171 32.4839 9.02135
RightHand  -0.0569623 7.25277 -0.921684
LeftUpLeg  97.6043 -14.1142 14.5757
LeftLeg  66.2907 -7.68762 -17.7503
LeftFoot  -16.1246 -0.610691 -14.3726
LeftToes  -5.36635e-011 -6.70219e-011 5.24975e-011
266
root  -42.8221 30.0351 -2.65645 -31.787 80.3523 67.5749
RightUpLeg  73.2891 39.8275 -35.2678
RightLeg  58.9986 12.7726 21.4007
RightFoot  -30.4302 0.557018 4.54231
RightToes  3.49245e-010 0 -3.6325e-017
Spine  7.78353 -32.2197 44.4761
Spine1  107.571 19.3699 -47.8488
HEad  -24.8608 -1.50611 -3.86218
LeftShoulder1  -0.749308 -3.3057 22.2228
LeftArm  -86.7783 -43.6538 10.476
LeftForeArm  -26.3057 -31.0326 -8.07618
LeftHand  -0.6521 12.6493 -8.91914
RightShoulder  -0.0258572 -3.28324 -27.6639
RightArm  -81.5389 28.445 -11.8426
RightForeArm  -39.6328 31.9515 8.81721
RightHand  0.125626 8.65982 0.663623
LeftUpLeg  96.358 -17.1609 21.1183
LeftLeg  65.4082 -9.33887 -20.5772
LeftFoot  -4.0096 0.54932 -6.81443
LeftToes  -5.36635e-011 -6.70219e-011 5.24975e-011
267
root  -42.7622 30.8347 -1.66753 -25.4712 76.1664 75.048
RightUpLeg  73.6685 41.8347 -34.1275
RightLeg  57.8099 12.0209 19.3568
RightFoot  -29.0242 0.553721 4.827
RightToes  3.49245e-010 0 -3.6325e-017
Spine  6.66277 -30.3803 43.0193
Spine1  111.237 22.975 -47.0337
HEad  -24.445 -0.804987 -4.59783
LeftShoulder1  -0.691553 -2.91884 21.9523
LeftArm  -88.1564 -43.7209 11.0575
LeftForeArm  -26.5596 -31.2792 -8.15317
LeftHand  -0.643876 12.8145 -8.58914
RightShoulder  0.0443393 -3.71567 -28.4536
RightArm  -83.6324 27.9791 -11.7933
RightForeArm  -38.3657 32.0973 8.81882
RightHand  0.00460547 8.61245 -0.351433
LeftUpLeg  93.8657 -16.0297 23.9673
LeftLeg  64.5447 -8.09093 -17.2732
LeftFoot  -7.33762 -0.0392046 2.39808
LeftToes  -5.36635e-011 -6.70219e-011 5.24975e-011
268
root  -43.2611 31.5692 -0.593675 -18.7209 73.418 83.1031
RightUpLeg  74.829 42.1226 -32.4931
RightLeg  57.0832 9.94655 15.7161
RightFoot  -27.2343 0.590658 5.56283
RightToes  3.49245e-010 0 -3.6325e-017
Spine  0.0868423 -29.0811 44.1894
Spine1  116.931 28.5716 -48.0712
HEad  -23.8892 -0.158633 -5.01636
LeftShoulder1  -0.653618 -2.51809 22.0619
LeftArm  -89.4217 -43.3662 10.9403
LeftForeArm  -26.3832 -31.9248 -8.32294
LeftHand  -0.642915 12.9489 -8.40986
RightShoulder  0.123136 -4.18059 -28.7533
RightArm  -85.2574 27.5394 -12.1022
RightForeArm  -37.8558 32.3934 8.88565
RightHand  0.0290802 8.57078 -0.132298
LeftUpLeg  88.9801 -14.4227 26.1493
LeftLeg  61.868 -7.2216 -13.6408
LeftFoot  -12.3974 0.0945444 3.25987
LeftToes  -5.36635e-011 -6.70219e-011 5.24975e-011
269
root  -43.9993 31.8658 0.0417164 -14.9111 72.7321 89.1544
RightUpLeg  76.5033 41.6767 -30.7047
RightLeg  57.8956 7.7676 12.726
RightFoot  -25.1581 0.65139 6.78251
RightToes  3.49245e-010 0 -3.6325e-017
Spine  -9.40149 -29.7935 49.8435
Spine1  122.117 35.3743 -52.4658
HEad  -23.7464 -0.536504 -5.24752
LeftShoulder1  -0.650645 -2.0754 22.9582
LeftArm  -90.5893 -42.5165 10.4458
LeftForeArm  -26.2899 -33.0948 -8.64571
LeftHand  -0.586313 12.5451 -8.04737
RightShoulder  0.0945081 -4.00027 -29.0492
RightArm  -87.3348 26.3284 -11.4027
RightForeArm  -35.7698 33.1259 9.02559
RightHand  0.145264 7.93675 0.877898
LeftUpLeg  83.8438 -13.094 28.6165
LeftLeg  58.453 -10.1635 -16.5658
LeftFoot  -15.4861 0.12539 1.02181
LeftToes  -5.36635e-011 -6.70219e-011 5.24975e-011
270
root  -44.6419 31.7752 0.29956 -10.6289 74.1656 95.0616
RightUpLeg  77.0576 40.1458 -30.8893
RightLeg  59.7004 6.07679 10.7048
RightFoot  -23.3992 0.670925 7.84219
RightToes  3.49245e-010 0 -3.6325e-017
Spine  -21.8259 -31.008 58.9223
Spine1  124.581 42.4126 -59.9452
HEad  -23.1745 -0.384205 -5.14662
LeftShoulder1  -0.619139 -1.70319 23.2186
LeftArm  -91.5163 -41.583 10.4477
LeftForeArm  -26.0954 -34.4386 -9.02791
LeftHand  -0.553625 12.7857 -7.26402
RightShoulder  0.162843 -4.40047 -29.0826
RightArm  -89.7671 26.3988 -10.5892
RightForeArm  -35.4038 34.0038 9.26821
RightHand  0.0290055 7.94829 -0.115886
LeftUpLeg  78.5332 -11.7819 31.0213
LeftLeg  55.6477 -16.247 -23.289
LeftFoot  -17.7163 -0.0448457 -2.72938
LeftToes  -5.36635e-011 -6.70219e-011 5.24975e-011
271
root  -44.8149 31.3564 0.166771 -5.09387 77.0301 100.943
RightUpLeg  75.8393 38.2313 -34.0223
RightLeg  61.8589 5.02344 9.63368
RightFoot  -22.4992 0.69253 8.62755
RightToes  3.49245e-010 0 -3.6325e-017
Spine  -33.4483 -30.4569 68.2203
Spine1  123.684 47.6225 -68.2744
HEad  -23.0025 -0.657283 -5.20541
LeftShoulder1  -0.545879 -0.876782 23.9017
LeftArm  -92.2838 -40.7985 9.42956
LeftForeArm  -25.1981 -36.2938 -9.54953
LeftHand  -0.495642 12.2764 -6.91845
RightShoulder  0.296034 -5.18811 -28.9256
RightArm  -91.7074 27.1869 -9.47816
RightForeArm  -35.5706 35.1262 9.61168
RightHand  -0.0269274 8.46047 -0.608353
LeftUpLeg  73.6669 -10.606 34.1264
LeftLeg  53.8356 -21.5618 -28.0402
LeftFoot  -18.9059 -0.226027 -5.53991
LeftToes  -5.36635e-011 -6.70219e-011 5.24975e-011
272
root  -44.7796 30.817 0.143098 8.50105 80.6951 112.795
RightUpLeg  73.1579 34.8414 -40.1642
RightLeg  63.9358 4.11357 8.60364
RightFoot  -23.1552 0.832131 9.53911
RightToes  3.49245e-010 0 -3.6325e-017
Spine  -48.5891 -25.0082 73.1551
Spine1  128.364 54.7999 -71.2766
HEad  -23.0738 -0.0617717 -5.88254
LeftShoulder1  -0.366272 0.69974 24.5048
LeftArm  -93.3438 -40.3137 7.79261
LeftForeArm  -24.1866 -38.1794 -10.1091
LeftHand  -0.492582 12.1853 -6.96405
RightShoulder  0.264606 -4.9731 -29.2827
RightArm  -92.3733 26.8366 -8.02768
RightForeArm  -34.7022 36.8637 10.1228
RightHand  -7.51017e-005 7.91426 -0.367241
LeftUpLeg  68.2737 -9.04842 34.1818
LeftLeg  52.7451 -22.0401 -27.4858
LeftFoot  -16.4813 -0.187686 -2.96267
LeftToes  -5.36635e-011 -6.70219e-011 5.24975e-011
273
root  -44.3495 30.4489 0.336209 4.26203 81.6964 108.805
RightUpLeg  71.6465 35.078 -44.3786
RightLeg  65.0112 3.93018 8.62191
RightFoot  -24.525 0.865291 8.94846
RightToes  3.49245e-010 0 -3.6325e-017
Spine  -57.4298 -16.8706 63.8953
Spine1  155.406 57.9223 -50.009
HEad  -22.9258 0.0927917 -6.21024
LeftShoulder1  -0.311052 1.05694 24.0859
LeftArm  -92.9723 -39.0074 6.85931
LeftForeArm  -23.8344 -40.1264 -10.751
LeftHand  -0.460506 12.3246 -6.30073
RightShoulder  0.258901 -4.9191 -29.5788
RightArm  -91.4686 27.6424 -6.35082
RightForeArm  -36.363 38.6228 10.7612
RightHand  -0.173152 8.82988 -1.79528
LeftUpLeg  67.1348 -9.45712 32.9307
LeftLeg  54.4179 -18.4594 -25.0482
LeftFoot  -10.619 0.0655632 8.92261
LeftToes  -5.36635e-011 -6.70219e-011 5.24975e-011
274
root  -44.0919 29.9197 0.823285 -11.72 83.0051 95.4293
RightUpLeg  73.0566 35.975 -45.9449
RightLeg  66.3063 3.93744 9.18586
RightFoot  -27.2204 0.810418 7.13048
RightToes  3.49245e-010 0 -3.6325e-017
Spine  -66.7464 -10.1996 43.7554
Spine1  -163.632 48.7577 -15.092
HEad  -22.7338 1.00336 -6.55624
LeftShoulder1  -0.196877 1.7957 22.8127
LeftArm  -92.6205 -38.3783 6.26967
LeftForeArm  -22.9226 -41.7022 -11.2788
LeftHand  -0.455394 12.2564 -6.29417
RightShoulder  0.0315421 -3.62946 -29.5193
RightArm  -88.881 27.3837 -5.6984
RightForeArm  -37.4699 40.7654 11.5609
RightHand  -0.276256 9.23126 -2.58176
LeftUpLeg  68.0059 -13.581 30.9332
LeftLeg  55.7162 -17.0308 -24.3593
LeftFoot  -12.0499 0.105927 4.78779
LeftToes  -5.36635e-011 -6.70219e-011 5.24975e-011
